#!OML:ASF I:\Actors\actors\Patient Classification 2\Patient 1\Session 1\actor1.ASF
:FULLY-SPECIFIED
:DEGREES

383
root -0.56362 18.081 6.15228 4.91953 -31.6943 -2.48475
lowerback 0.421385 -6.41051 -1.17114
upperback -3.01998 -8.55178 1.9593
thorax -2.87458 -4.22408 2.87741
lowerneck -8.15155 3.99832 12.6296
upperneck 28.9955 1.49997 3.93083
head 10.9447 2.29668 -0.571621
rclavicle -2.97866e-014 -5.36719e-015
rhumerus 33.0952 49.0409 -8.00982
rradius 130.799
rwrist -78.9952
rhand -3.25359 -54.5796
rfingers 7.12502
rthumb 22.4706 -83.2924
lclavicle -2.97866e-014 -5.36719e-015
lhumerus -4.19338 7.65073 86.2397
lradius 109.619
lwrist 89.0557
lhand -47.4325 -23.9373
lfingers 7.12502
lthumb -20.1231 5.04057
rfemur 7.65673 16.6209 13.4786
rtibia -19.2656
rfoot 3.26838 -6.0139
rtoes -0.178166
lfemur 13.529 20.0962 -13.1175
ltibia -9.54166e-015
lfoot -18.4424 13.8267
ltoes 4.54673
384
root -0.56632 18.0792 6.16715 5.02107 -31.6372 -2.58679
lowerback 0.140219 -6.28912 -0.999721
upperback -2.92774 -8.38749 1.80236
thorax -2.67812 -4.15128 2.58239
lowerneck -8.40158 3.91254 12.639
upperneck 29.0233 1.31138 4.01808
head 10.9977 2.22726 -0.559678
rclavicle 1.4442e-013 -6.26172e-015
rhumerus 31.343 50.0498 -10.572
rradius 129.35
rwrist -77.3774
rhand -2.37568 -56.3259
rfingers 7.12502
rthumb 23.313 -84.9344
lclavicle 1.4442e-013 -6.26172e-015
lhumerus -6.24522 5.87756 87.9354
lradius 113.075
lwrist 89.1767
lhand -47.7233 -25.6819
lfingers 7.12502
lthumb -20.4025 3.26624
rfemur 7.63777 16.6225 13.5521
rtibia -19.2124
rfoot 3.21121 -5.99956
rtoes -0.16187
lfemur 13.5057 20.0663 -13.0468
ltibia 2.22639e-014
lfoot -18.4374 13.8203
ltoes 4.50721
385
root -0.568738 18.0748 6.18022 5.09253 -31.6184 -2.71057
lowerback -0.0916191 -6.23744 -0.812116
upperback -2.82696 -8.31514 1.75568
thorax -2.48097 -4.12313 2.3976
lowerneck -8.70415 3.86307 12.3281
upperneck 29.0026 1.25752 4.05145
head 11.0355 2.17914 -0.499198
rclavicle 4.05334e-016 7.25564e-015
rhumerus 28.2854 51.3043 -13.6723
rradius 128.075
rwrist -76.0578
rhand -5.5185 -54.7943
rfingers 7.12502
rthumb 20.2952 -83.754
lclavicle 4.05334e-016 7.25564e-015
lhumerus -7.9236 4.81993 89.6924
lradius 115.903
lwrist 89.5457
lhand -47.643 -26.7277
lfingers 7.12502
lthumb -20.3254 2.22873
rfemur 7.64988 16.5122 13.6667
rtibia -19.1691
rfoot 3.21888 -5.86201
rtoes -0.150595
lfemur 13.5423 20.0682 -12.9312
ltibia 3.18055e-015
lfoot -18.466 13.8078
ltoes 4.66217
386
root -0.57093 18.07 6.1892 5.08569 -31.627 -2.7533
lowerback -0.262044 -6.14659 -0.724961
upperback -2.68713 -8.19331 1.66754
thorax -2.2715 -4.06793 2.22941
lowerneck -9.06986 3.8213 12.2077
upperneck 28.8674 1.207 3.9915
head 11.0479 2.13909 -0.503349
rclavicle 2.42909e-015 1.07903e-014
rhumerus 27.9091 52.463 -15.0151
rradius 127.554
rwrist -75.871
rhand -4.21872 -55.6909
rfingers 7.12502
rthumb 21.5439 -84.5127
lclavicle 2.42909e-015 1.07903e-014
lhumerus -8.95065 4.20873 91.0329
lradius 117.785
lwrist 89.3308
lhand -48.1952 -25.6057
lfingers 7.12502
lthumb -20.8559 3.29328
rfemur 7.68594 16.3656 13.717
rtibia -19.1361
rfoot 3.25166 -5.69836
rtoes 0.00810652
lfemur 13.6191 20.0866 -12.8724
ltibia 2.8625e-014
lfoot -18.5403 13.7752
ltoes 5.00386
387
root -0.572 18.0674 6.19387 5.01354 -31.6207 -2.69423
lowerback -0.349163 -6.01689 -0.808388
upperback -2.5416 -8.02133 1.60687
thorax -2.07698 -3.98347 2.19035
lowerneck -9.33109 3.79629 12.146
upperneck 28.5886 1.23791 3.8075
head 10.988 2.12171 -0.555335
rclavicle -4.95972e-014 -1.23868e-014
rhumerus 26.9783 53.5445 -16.3893
rradius 127.625
rwrist -75.7066
rhand -6.60129 -55.2711
rfingers 7.12502
rthumb 19.2542 -84.3379
lclavicle -4.95972e-014 -1.23868e-014
lhumerus -9.45163 3.87596 91.7374
lradius 119.148
lwrist 89.8967
lhand -47.8303 -26.0487
lfingers 7.12502
lthumb -20.5054 2.88845
rfemur 7.73473 16.2498 13.674
rtibia -19.1079
rfoot 3.26984 -5.59174
rtoes 0.149364
lfemur 13.6812 20.0852 -12.9132
ltibia -1.59028e-014
lfoot -18.5915 13.7773
ltoes 5.15616
388
root -0.571998 18.068 6.19418 4.9736 -31.5414 -2.6424
lowerback -0.464588 -5.87549 -0.918375
upperback -2.37007 -7.83288 1.5973
thorax -1.8302 -3.89081 2.21293
lowerneck -9.56139 3.71741 11.9294
upperneck 28.1425 1.21042 3.74544
head 10.8516 2.06836 -0.547158
rclavicle 1.62631e-014 2.84511e-015
rhumerus 25.4994 54.3342 -17.6248
rradius 127.708
rwrist -75.7289
rhand -5.40384 -55.6926
rfingers 7.12502
rthumb 20.4054 -84.6405
lclavicle 1.62631e-014 2.84511e-015
lhumerus -9.34324 3.88563 91.7765
lradius 119.98
lwrist 91.1178
lhand -47.5692 -26.4194
lfingers 7.12502
lthumb -20.2544 2.54454
rfemur 7.76342 16.1808 13.6362
rtibia -19.0862
rfoot 3.23226 -5.57264
rtoes 0.195617
lfemur 13.6692 20.0182 -12.9657
ltibia 1.59028e-014
lfoot -18.574 13.8471
ltoes 4.88439
389
root -0.571934 18.0706 6.18978 4.98421 -31.3589 -2.60346
lowerback -0.534408 -5.77066 -0.949251
upperback -2.28108 -7.69277 1.58983
thorax -1.70251 -3.82208 2.20754
lowerneck -9.68699 3.63725 11.6912
upperneck 27.7823 1.17585 3.73549
head 10.7285 2.01714 -0.518069
rclavicle 1.45115e-013 3.40419e-015
rhumerus 24.0939 55.0083 -18.4982
rradius 128.159
rwrist -76.0578
rhand -2.15947 -57.84
rfingers 7.12502
rthumb 23.5204 -86.4219
lclavicle 1.45115e-013 3.40419e-015
lhumerus -8.45317 4.28898 90.956
lradius 119.649
lwrist 91.6198
lhand -47.6392 -25.8231
lfingers 7.12502
lthumb -20.3216 3.13369
rfemur 7.74344 16.1316 13.6109
rtibia -19.0471
rfoot 3.14267 -5.66835
rtoes 0.265036
lfemur 13.5572 19.8567 -13.0237
ltibia 1.90833e-014
lfoot -18.4729 13.941
ltoes 4.3123
390
root -0.572233 18.0741 6.18173 4.97489 -31.0981 -2.54461
lowerback -0.425279 -5.69339 -0.828612
upperback -2.338 -7.59026 1.48191
thorax -1.85636 -3.77135 2.04999
lowerneck -9.74755 3.5667 11.5704
upperneck 27.6408 1.07393 3.86544
head 10.6797 1.96946 -0.464479
rclavicle 2.37222e-015 3.90115e-015
rhumerus 22.9276 55.7933 -19.0532
rradius 129.108
rwrist -76.3181
rhand -2.00332 -58.1454
rfingers 7.12502
rthumb 23.6702 -86.7081
lclavicle 2.37222e-015 3.90115e-015
lhumerus -6.90822 5.09671 89.3153
lradius 118.227
lwrist 92.0961
lhand -47.3773 -24.1896
lfingers 7.12502
lthumb -20.07 4.79379
rfemur 7.72215 16.0816 13.5765
rtibia -18.971
rfoot 3.01841 -5.81683
rtoes 0.332461
lfemur 13.4191 19.6161 -13.0966
ltibia 4.45278e-014
lfoot -18.3337 14.0418
ltoes 3.69814
391
root -0.57416 18.0782 6.17085 4.96557 -30.7446 -2.53485
lowerback -0.357129 -5.61441 -0.916563
upperback -2.35031 -7.48505 1.54428
thorax -1.89176 -3.71629 2.16852
lowerneck -9.83 3.46261 11.4686
upperneck 27.5319 0.958654 3.84486
head 10.646 1.9031 -0.469383
rclavicle -3.76029e-014 5.8393e-015
rhumerus 22.0221 56.5455 -18.9297
rradius 130.248
rwrist -76.0245
rhand -2.57168 -57.1199
rfingers 7.12502
rthumb 23.125 -85.752
lclavicle -3.76029e-014 5.8393e-015
lhumerus -4.60148 6.2976 87.6176
lradius 115.793
lwrist 91.8734
lhand -47.2312 -22.5133
lfingers 7.12502
lthumb -19.9295 6.48481
rfemur 7.7324 16.0359 13.6091
rtibia -18.8776
rfoot 2.81966 -6.01278
rtoes 0.46771
lfemur 13.2855 19.2832 -13.1094
ltibia 2.8625e-014
lfoot -18.2063 14.1651
ltoes 3.03775
392
root -0.577446 18.0828 6.15802 4.99405 -30.2986 -2.54808
lowerback -0.303271 -5.59201 -0.970527
upperback -2.3977 -7.45514 1.60725
thorax -1.95679 -3.69897 2.27044
lowerneck -9.78822 3.38084 11.4315
upperneck 27.4756 0.876489 3.80882
head 10.6113 1.85627 -0.487541
rclavicle 4.97992e-014 9.13167e-015
rhumerus 21.2129 57.3128 -18.7091
rradius 131.453
rwrist -75.5419
rhand -2.58481 -56.4625
rfingers 7.12502
rthumb 23.1124 -85.0963
lclavicle 4.97992e-014 9.13167e-015
lhumerus -1.8352 7.7958 85.5752
lradius 113.133
lwrist 92.8686
lhand -46.5031 -19.8426
lfingers 7.12502
lthumb -19.2295 9.22674
rfemur 7.73045 15.9107 13.6748
rtibia -18.7858
rfoot 2.59657 -6.2078
rtoes 0.346209
lfemur 13.0968 18.8634 -13.1057
ltibia 0
lfoot -18.0884 14.2775
ltoes 2.51762
393
root -0.57944 18.0877 6.14463 4.99389 -29.7843 -2.46769
lowerback -0.250311 -5.6084 -1.08272
upperback -2.4802 -7.47831 1.62841
thorax -2.05344 -3.70676 2.36407
lowerneck -9.68429 3.25449 11.2677
upperneck 27.4638 0.693516 4.00536
head 10.5768 1.77608 -0.414173
rclavicle 2.45688e-014 -4.28785e-015
rhumerus 20.4023 57.9052 -18.5594
rradius 132.62
rwrist -75.4913
rhand -2.6521 -56.9665
rfingers 7.12502
rthumb 23.0478 -85.6083
lclavicle 2.45688e-014 -4.28785e-015
lhumerus 1.35619 9.2753 83.4942
lradius 109.728
lwrist 93.3837
lhand -45.1479 -17.7848
lfingers 7.12502
lthumb -17.926 11.4091
rfemur 7.72017 15.6939 13.6491
rtibia -18.6911
rfoot 2.37852 -6.3721
rtoes 0.0185942
lfemur 12.8697 18.3743 -13.1992
ltibia 1.43125e-014
lfoot -17.9699 14.3505
ltoes 2.2586
394
root -0.580709 18.0919 6.13244 4.955 -29.2491 -2.34986
lowerback 0.303263 -5.64355 -1.29282
upperback -2.89782 -7.53245 1.70554
thorax -2.75492 -3.71616 2.64761
lowerneck -9.46201 3.06293 10.9963
upperneck 27.7934 0.401198 4.27006
head 10.6429 1.65342 -0.310012
rclavicle 4.03556e-014 -1.14798e-014
rhumerus 19.4654 58.8359 -18.4327
rradius 133.722
rwrist -75.7356
rhand -2.79957 -57.5981
rfingers 7.12502
rthumb 22.9063 -86.2575
lclavicle 4.03556e-014 -1.14798e-014
lhumerus 4.43303 10.9926 81.7959
lradius 105.291
lwrist 92.4044
lhand -43.7962 -15.3808
lfingers 7.12502
lthumb -16.625 13.9272
rfemur 7.74557 15.4997 13.5902
rtibia -18.6068
rfoot 2.13671 -6.59437
rtoes 0.00974121
lfemur 12.6755 17.8593 -13.3179
ltibia -4.77083e-015
lfoot -17.9103 14.4027
ltoes 2.09187
